<svg class="thumb" width="1000" height="1000" viewBox="0,0,600,600" xmlns="http://www.w3.org/2000/svg" xmlns:inkscape="http://www.inkscape.org/namespaces/inkscape" xmlns:sodipodi="http://sodipodi.sourceforge.net/DTD/sodipodi-0.dtd" xmlns:xlink="http://www.w3.org/1999/xlink" xmlns:ns1="http://www.inkscape.org/namespaces/inkscape" xmlns:sketch="http://www.bohemiancoding.com/sketch/ns">
  <defs></defs>
  <g transform="matrix(1.1892,0,0,1.1892,-111.8904,-7.8139)">
    <g transform="matrix(2.3242,0,0,2.3242,231.1526,151.9247)">
      <svg width="94.28" height="93.80346746592843" viewBox="2.8400000000000034,3.089516318677857,94.28,93.80346746592843">
        <defs>
          <linearGradient x1="0" y1="0.5" x2="1" y2="0.5" id="linearGradientSkliol8sr4">
            <stop offset="0%" stop-color="#650d88"></stop>
            <stop offset="50%" stop-color="#e78200"></stop>
            <stop offset="100%" stop-color="#419a1c"></stop>
          </linearGradient>
        </defs>
        <g></g>
        <g></g>
        <g></g>
        <g>
          <path d="M45.84,58.11V89.89a2,2,0,0,1-4,0V59.3L12.09,43.09v46.8a2,2,0,0,1-4,0V39.72a2,2,0,0,1,3-1.76L44.8,56.35A2,2,0,0,1,45.84,58.11Zm-38-36.27A13.73,13.73,0,1,1,21.61,35.57,13.75,13.75,0,0,1,7.88,21.84Zm4,0a9.73,9.73,0,1,0,9.73-9.73A9.74,9.74,0,0,0,11.88,21.84ZM90.93,38a2,2,0,0,0-2,0L55.2,56.35a2,2,0,0,0-1,1.76V89.89a2,2,0,0,0,4,0V59.3L87.91,43.09v46.8a2,2,0,1,0,4,0V39.72A2,2,0,0,0,90.93,38ZM64.66,21.84A13.73,13.73,0,1,1,78.39,35.57,13.75,13.75,0,0,1,64.66,21.84Zm4,0a9.73,9.73,0,1,0,9.73-9.73A9.74,9.74,0,0,0,68.66,21.84ZM50,51.83A13.73,13.73,0,1,1,63.73,38.1,13.75,13.75,0,0,1,50,51.83ZM59.73,38.1A9.73,9.73,0,1,0,50,47.83,9.74,9.74,0,0,0,59.73,38.1Z" style="" stroke="none" fill="url('#linearGradientSkliol8sr4')"></path>
        </g>
      </svg>
    </g>
    <g transform="matrix(0.3182,-0.0334,0.0334,0.3182,539.8223,249.6072)">
      <svg width="72.88961684071732" height="186.49037778258662" viewBox="51.92628744786957,-4.861,72.88961684071732,186.49037778258662">
        <defs>
          <linearGradient x1="0" y1="0.5" x2="1" y2="0.5" id="linearGradientSkliol8srb">
            <stop offset="0%" stop-color="#419a1c"></stop>
            <stop offset="100%" stop-color="#419a1c"></stop>
          </linearGradient>
        </defs>
        <g></g>
        <g></g>
        <g>
          <path d="M84.385,0.139c0,0,7.216,17.238-14.382,53.421c-17.426,29.192-18.639,58.697,3.698,78.898  c1.574,1.424,3.225,2.605,4.922,3.58c1.028,0.549,2.12,0.998,3.211,1.226c0,0-7.284,16.83-16.376,24.38  c-0.191,0.297-0.294,0.453-0.294,0.453s-7.554,30.633,9.402,2.949c0.595-0.971,1.168-1.947,1.731-2.924  c0.163-0.283,0.321-0.566,0.481-0.85c0.466-0.824,0.925-1.648,1.368-2.477c0.141-0.262,0.276-0.524,0.415-0.787  c0.398-0.754,0.789-1.51,1.169-2.266c0.16-0.316,0.316-0.633,0.473-0.949c0.369-0.75,0.73-1.5,1.083-2.25  c0.133-0.283,0.267-0.565,0.397-0.848c0.373-0.807,0.734-1.613,1.088-2.42c0.12-0.273,0.242-0.548,0.36-0.821  c0.356-0.825,0.701-1.651,1.038-2.476c0.117-0.285,0.235-0.572,0.35-0.858c0.327-0.813,0.645-1.626,0.954-2.437  c0.111-0.293,0.223-0.586,0.332-0.879c0.3-0.803,0.593-1.604,0.876-2.401c10.097-28.437,9.512-53.575,9.512-53.575  c0,0.004,0,0.008-0.001,0.013c0.145-3.411,0.118-6.859-0.118-10.318c0,0,8.102,30.597-4.262,63.721  C118.147,137.541,141.861,88.845,84.385,0.139z" style="" stroke="none" fill="url('#linearGradientSkliol8srb')"></path>
        </g>
      </svg>
    </g>
    <g transform="matrix(-0.3182,-0.0334,-0.0334,0.3182,149.9577,254.6072)">
      <svg width="72.88961684071732" height="186.49037778258662" viewBox="51.92628744786957,-4.861,72.88961684071732,186.49037778258662">
        <defs>
          <linearGradient x1="0" y1="0.5" x2="1" y2="0.5" id="linearGradientSkliol8srh">
            <stop offset="0%" stop-color="#8a25b1"></stop>
            <stop offset="100%" stop-color="#8a25b1"></stop>
          </linearGradient>
        </defs>
        <g></g>
        <g></g>
        <g>
          <path d="M84.385,0.139c0,0,7.216,17.238-14.382,53.421c-17.426,29.192-18.639,58.697,3.698,78.898  c1.574,1.424,3.225,2.605,4.922,3.58c1.028,0.549,2.12,0.998,3.211,1.226c0,0-7.284,16.83-16.376,24.38  c-0.191,0.297-0.294,0.453-0.294,0.453s-7.554,30.633,9.402,2.949c0.595-0.971,1.168-1.947,1.731-2.924  c0.163-0.283,0.321-0.566,0.481-0.85c0.466-0.824,0.925-1.648,1.368-2.477c0.141-0.262,0.276-0.524,0.415-0.787  c0.398-0.754,0.789-1.51,1.169-2.266c0.16-0.316,0.316-0.633,0.473-0.949c0.369-0.75,0.73-1.5,1.083-2.25  c0.133-0.283,0.267-0.565,0.397-0.848c0.373-0.807,0.734-1.613,1.088-2.42c0.12-0.273,0.242-0.548,0.36-0.821  c0.356-0.825,0.701-1.651,1.038-2.476c0.117-0.285,0.235-0.572,0.35-0.858c0.327-0.813,0.645-1.626,0.954-2.437  c0.111-0.293,0.223-0.586,0.332-0.879c0.3-0.803,0.593-1.604,0.876-2.401c10.097-28.437,9.512-53.575,9.512-53.575  c0,0.004,0,0.008-0.001,0.013c0.145-3.411,0.118-6.859-0.118-10.318c0,0,8.102,30.597-4.262,63.721  C118.147,137.541,141.861,88.845,84.385,0.139z" style="" stroke="none" fill="url('#linearGradientSkliol8srh')"></path>
        </g>
      </svg>
    </g>
    <g transform="matrix(0.971,0,0,0.9526,88.0108,0.4091)">
      <svg width="529" height="330" style="overflow: visible;">
        <defs>
          <linearGradient x1="0" y1="0.5" x2="1" y2="0.5" id="linearGradientSkliol8srv">
            <stop offset="0%" stop-color="#000000"></stop>
            <stop offset="100%" stop-color="#000000"></stop>
          </linearGradient>
        </defs>
        <g>
          <path d="M 80.2199488226623 249.30818132446487Q 80.82757690171456 245.3141372438935  79.13435054222336 242.54800555947858Q 77.43962015283348 239.79176012278788  73.78170849488446 239.2352690602895L 73.78170849488446 239.2352690602895Q 70.81583417762847 238.78406009069624  68.51949182878093 239.98231374368012Q 66.21326323220919 241.17906336676538  64.56686374562432 243.2247096535347Q 62.91057801131524 245.26885191040537  60.603799246835536 248.86278732047404L 60.603799246835536 248.86278732047404Q 57.93447584185588 252.97812601365928  55.87050621135587 255.37496338076906Q 53.814918798681404 257.78319102550165  50.77389806268825 259.222181255927Q 47.73137329679642 260.67105773407656  43.598921748086426 260.0423732364432L 43.598921748086426 260.0423732364432Q 40.07941755827602 259.5069385925259  37.261983628722156 257.3486369332116Q 34.45443594689249 255.191839303796  33.11019960008174 251.52798496117907Q 31.7560770055468 247.86262658866352  32.50057180537569 242.96893396519116L 32.50057180537569 242.96893396519116Q 33.181897349461536 238.49046374613462  34.998674069393516 235.12543442235258Q 36.81394675942689 231.7702913462947  39.42663067671674 230.15487104546432Q 42.037810564107964 228.54933699235812  45.00368488136393 229.0005459619514L 45.00368488136393 229.0005459619514Q 48.51330282345017 229.5344765759701  50.47817170922469 231.9777920000845Q 52.43165031737637 234.42948964202438  51.94885671991157 237.60297516148827L 51.94885671991157 237.60297516148827Q 51.72926835470951 239.04636732921952  50.89882354587785 238.9200288177334L 50.89882354587785 238.9200288177334Q 50.691212343669925 238.88844418986187  49.81109783071965 238.15776064406776Q 48.940869565493564 237.42858112817225  47.8024286885818 236.80020833294924Q 46.66549184156866 236.16194929000207  44.93539848983601 235.89874405773932L 44.93539848983601 235.89874405773932Q 41.70259548402701 235.40692628088266  39.328703900747946 237.5138526561594Q 36.96469856519305 239.6222830613348  36.36609466553265 243.55700965556105L 36.36609466553265 243.55700965556105Q 35.74643434729123 247.6301437179259  37.72441764735322 250.1867199567023Q 39.69251469969104 252.74179216558  43.00440768729353 253.2456421816258L 43.00440768729353 253.2456421816258Q 45.55505960013367 253.63368189547603  47.63476656738145 252.46316110096572Q 49.72285575245476 251.30403058407822  51.28350717608524 249.35660481298447Q 52.85404484743991 247.41068307178935  55.15179943252776 243.8760651480658L 55.15179943252776 243.8760651480658Q 57.85056147391397 239.63370926436474  60.03659599170183 237.03291071641067Q 62.23101272731522 234.44350244607944  65.47254637082341 232.88329103796687Q 68.70268973670878 231.3314618476799  73.05263873535087 231.99323500308336L 73.05263873535087 231.99323500308336Q 79.18211232434655 232.9257335402428  82.21585157435823 237.5850174082786Q 85.24959082436989 242.2443012763144  84.08547168281926 249.89625701483476L 84.08547168281926 249.89625701483476Q 83.32894464380121 254.8690396201006  81.32863955877127 258.50959995702726Q 79.32683044384271 262.16004654167807  76.47645472637203 263.94160716912063Q 73.63446122672691 265.7345580741861  70.39177197319373 265.2412362674308L 70.39177197319373 265.2412362674308Q 66.8722677833833 264.7058016235134  64.93984559381263 262.1156965134349Q 63.00591937434332 259.53547765108056  63.52029759967965 256.1543809294088L 63.52029759967965 256.1543809294088Q 63.636107901875256 255.3931398546464  63.92601889370827 255.0832179018673Q 64.21442585564265 254.78318219681242  64.56044452598918 254.83582324326497L 64.56044452598918 254.83582324326497Q 64.7680557281971 254.8674078711365  65.6041131605547 255.6217340405086Q 66.44855281073782 256.38745048750354  67.6106363112276 257.0598803633193Q 68.78260605944155 257.7338142690336  70.50281316344999 257.99551547139765L 70.50281316344999 257.99551547139765Q 74.16072482139904 258.552006533896  76.85418613968368 256.1396702955362Q 79.54764745796834 253.72733405717628  80.2199488226623 249.30818132446487L 80.2199488226623 249.30818132446487ZM 96.38631163559793 202.36969391375547L 93.87263443649434 202.30702862267057L 94.0523106674309 200.66260883075716Q 94.2605832521783 198.9434745921235  93.86777357190016 198.0114871699553Q 93.48430319746205 197.0830742920134  92.30755066161723 196.63268171949164L 92.30755066161723 196.63268171949164Q 91.27088771337299 196.2359073103653  88.83826815889417 196.12931414375834L 88.83826815889417 196.12931414375834L 78.52920788741147 195.7598871294005L 72.7670425945138 210.81484814354212L 76.92380038129059 214.19395523004746Q 80.84407941413087 217.40759993733434  83.18824517998044 218.30481053815151L 83.18824517998044 218.30481053815151Q 85.41099996990954 219.155552064026  87.51352025779397 218.92165371209862L 87.51352025779397 218.92165371209862L 88.90612977405965 218.7800954724716L 89.47671764603761 220.4225721025494L 84.89057740361345 232.40490149531848L 82.37690020450985 232.3422362042336L 82.56015097967278 230.68847710648015Q 82.8383222691452 227.8075708716795  82.11772706743581 226.19333961337932Q 81.39136710411279 224.5661945050127  78.79379888281319 222.37276355426582L 78.79379888281319 222.37276355426582L 53.27043280288049 200.8792602579267Q 51.394057820875304 199.3473278420202  50.34805556679102 198.9469788886675L 50.34805556679102 198.9469788886675Q 49.171303030946206 198.49658631614574  48.26594919945904 198.93171209084943Q 47.35125606213183 199.3632633213268  46.358481786821194 200.78213584494597L 46.358481786821194 200.78213584494597L 45.39430386532144 202.12629392184482L 43.48115009624691 200.49462524963351L 48.29248662493196 187.92391958894203L 91.08148975324806 189.28924419684807Q 94.47618133702667 189.40000994526648  96.52059910025942 188.7584056985704Q 98.55210301342578 188.12256621348808  101.2740527972768 186.46609726593928L 101.2740527972768 186.46609726593928L 101.99477152676201 187.71632305073547L 96.38631163559793 202.36969391375547ZM 53.32879606436773 194.85189817076878L 69.24858116705262 207.89419253504116L 73.95983045739949 195.58498743787078L 53.32879606436773 194.85189817076878ZM 126.93791127575676 149.94436940457598Q 127.50351378908299 153.89959301354162  125.40926559366471 156.76605851934966L 125.40926559366471 156.76605851934966Q 123.39170817723358 159.52755486579008  120.57614448151307 160.05887499089403Q 117.76275604582177 160.60416895740985  113.13941526992627 159.72802965915758L 113.13941526992627 159.72802965915758L 100.94507074430908 157.38263809471687Q 99.44297832987392 157.0654340933291  98.37974830949302 157.4527865475111Q 97.3245928398327 157.84603829238438  95.33078875513931 159.15112268500425L 95.33078875513931 159.15112268500425Q 94.15053010788516 159.93597268696757  93.24618042717954 159.27525212953984L 93.24618042717954 159.27525212953984Q 92.6890364274591 158.86820107183883  92.45856358150732 158.35304840778775Q 92.22809073555554 157.8378957437367  92.5584510142694 157.3857209033839L 92.5584510142694 157.3857209033839Q 92.72363115362634 157.1596334832075  93.43065866106517 156.59873054710818Q 94.14576071922457 156.04372690170018  94.97166141600924 154.91328980081812L 94.97166141600924 154.91328980081812Q 98.05699044756912 150.69029977395166  97.38734105611157 146.57236707749817Q 96.7257662153746 142.460333671736  92.72886360868453 139.5401847795331L 92.72886360868453 139.5401847795331Q 88.61891729190624 136.53744581765167  84.16000890271556 137.1313616170752Q 79.71507435493677 137.7231021564695  76.38197511434149 142.2852233136006L 76.38197511434149 142.2852233136006Q 73.25535104794238 146.56473519551116  75.8472818292505 148.4584075074246L 75.8472818292505 148.4584075074246L 100.00633758524381 166.10908525585128Q 103.38957433716936 168.58088805551398  105.85346056859055 169.51408934066802Q 108.31952206004101 170.46126446723395  111.26556645180072 170.446349984974L 111.26556645180072 170.446349984974L 112.80582145409267 170.45705175653617L 113.17923497257961 171.84448187881665L 104.16511879624404 184.18239537987205L 101.75590985739436 183.46252574655867L 102.36656452843212 181.91475287150894Q 103.36465801119064 179.36204658216127  102.83565276898332 177.84855609533383Q 102.29267368536412 176.33724086853567  99.75726475910011 174.48486359146148L 99.75726475910011 174.48486359146148L 71.94043752668132 154.16180715986724Q 71.20565341110799 153.6249717069572  70.69234530952954 153.68340793590758Q 70.17686194792185 153.72787032344607  69.68132152985105 154.40613258397528L 69.68132152985105 154.40613258397528L 67.29210879986681 157.67632562581264L 64.71923358657614 156.82449633726094Q 65.53622380894271 153.70601481950948  67.6737677706453 149.18687709071776Q 69.80913647231861 144.65376552051413  72.48151515548616 140.99599404408866L 72.48151515548616 140.99599404408866Q 78.57548243961877 132.6549831497233  84.97668497363058 131.1146565224911Q 91.36981295692182 129.5684306045675  96.83628379475856 133.56225040259054L 96.83628379475856 133.56225040259054Q 101.00275196658095 136.60628439931116  102.41618230556871 141.1809335308653Q 103.8215380938359 145.7496833717281  101.60364913391778 151.03988833576054L 101.60364913391778 151.03988833576054Q 103.35189317532188 150.4099337566875  106.01104758323623 150.8046461011482L 106.01104758323623 150.8046461011482L 120.48194509163466 153.3395278146464Q 122.88086931401763 153.71749947398627  123.78936008048078 152.474018663016L 123.78936008048078 152.474018663016Q 124.5680664517349 151.40817796789867  124.60266117790216 149.69961037926737L 124.60266117790216 149.69961037926737L 126.93791127575676 149.94436940457598ZM 154.30544152445066 122.65990061479623Q 152.8138927749108 129.5801449983239  147.42772532590186 133.79616210113983L 147.42772532590186 133.79616210113983Q 141.8840676006061 138.13545455783927  136.02575282321257 138.56840717530747Q 130.15339976431054 138.99964904665552  124.75633263088301 135.99835493289783Q 119.35755475133537 133.01109910064866  114.96895215308251 127.40444526483815L 114.96895215308251 127.40444526483815Q 110.80224519181998 122.08127392634391  109.35134100871076 116.04192155614427Q 107.90043682560157 110.00256918594462  109.9118305284274 104.13582431572635Q 111.91706046355904 98.2612049316937  117.84656936575747 93.61988785797965L 117.84656936575747 93.61988785797965Q 121.68933210715568 90.61196922322209  125.54457483378964 89.37216943344316Q 129.39365379272942 88.12449512984985  132.63103767859684 88.73983696617026Q 135.86054705064987 89.36134257018485  137.83295271278598 91.88118699077384L 137.83295271278598 91.88118699077384Q 140.02725401191242 94.68451390867908  139.7676491391182 97.80853460483674Q 139.51420803401814 100.94042981480875  136.98648909961483 102.91899924463904L 136.98648909961483 102.91899924463904Q 136.1675396629234 103.56003108483328  135.9158821251038 103.57922701301018Q 135.6642245872842 103.59842294118712  135.31905359641036 103.15745016758405L 135.31905359641036 103.15745016758405Q 135.1896144748327 102.99208537748288  135.0501615558496 101.85672072972118Q 134.92474691837504 100.72306682807962  134.52712038133097 99.48500659649218Q 134.1233300765927 98.23907185109039  133.05083449780622 96.86890644739515L 133.05083449780622 96.86890644739515Q 130.8565331986798 94.06557952948991  127.31652170393505 94.00459906479018Q 123.76863569537593 93.94978236778462  120.25660253418003 96.69882275938681L 120.25660253418003 96.69882275938681Q 115.91774542247839 100.09505875887744  115.1049631572446 104.71881102184759Q 114.2921808920108 109.3425632848177  115.96585979159656 113.96301769332356Q 117.63166417736801 118.58963586952362  120.68889295367899 122.49539472143655L 120.68889295367899 122.49539472143655Q 124.25155068091235 127.04686370612538  128.59949509768077 129.71373065981695Q 132.9474395144492 132.38059761350857  137.30509282892822 132.51272479016083Q 141.66274614340722 132.6448519668131  145.17477930460313 129.8958115752109L 145.17477930460313 129.8958115752109Q 150.61606835031245 125.63664809853573  151.42696201127075 118.98250266349918L 151.42696201127075 118.98250266349918L 149.23266071214434 116.17917574559395Q 147.25409128231405 113.65145681119064  145.76703956343715 113.22804544456801Q 144.2816985906804 112.79059579643689  141.72034231742865 113.81765667168912L 141.72034231742865 113.81765667168912L 140.19983111785865 114.48716820406341L 139.3943135670495 112.09527742993961L 150.93047630505845 103.06535775797273L 152.3295245300967 103.3925642127031L 152.39745301627215 104.9394920457858Q 152.43707966842288 107.82928956956479  153.4761157665163 110.29237787225694Q 154.52302637842402 112.74930240725489  157.09948127458932 116.04084918164925L 157.09948127458932 116.04084918164925L 162.08596933917715 122.41133085745078Q 174.7278568799308 138.5619586906633  161.65616394812548 148.79381306299433L 161.65616394812548 148.79381306299433Q 158.41186425661718 151.33328535299458  155.27833452544868 151.97006743807805Q 152.14480479428022 152.6068495231615  149.61957405225172 151.70075366757322Q 147.1005070779174 150.80253232579935  145.51025501282012 148.77090776169948L 145.51025501282012 148.77090776169948Q 143.35910008755295 146.0227024404946  143.69674547339616 142.6090100710186Q 144.04055462693358 139.20319221535692  147.2848543184419 136.6637199253567L 147.2848543184419 136.6637199253567Q 147.83607028544571 136.2322561867644  148.2281106383505 136.23016771978916Q 148.62802550506962 136.22191548511972  148.80061100050654 136.44240187192125L 148.80061100050654 136.44240187192125Q 148.97319649594343 136.6628882587228  148.84868975002647 138.09376144325773Q 148.72418300410948 139.5246346277927  149.04925357901223 141.1242686863612Q 149.37432415391498 142.72390274492972  150.75500811741026 144.487793839342L 150.75500811741026 144.487793839342Q 152.47469930408516 146.684783193543  155.12073921216682 146.9502503381Q 157.7650683741283 147.22975576416553  160.347908905232 145.20803996047601L 160.347908905232 145.20803996047601Q 163.92293817694264 142.40968942732042  163.58908519666792 138.25169205026958Q 163.24906844869906 134.08582015940436  158.3488731318297 127.82558167700365L 158.3488731318297 127.82558167700365L 154.30544152445066 122.65990061479623ZM 172.8899987573491 92.37211785412111L 178.45981280140487 105.39067274760444Q 179.34091332814816 107.45010516013289  180.09931642148297 108.33295551439468Q 180.86165299931218 109.22499976335527  181.8910854497626 109.24139579823174Q 182.9165844157186 109.24859793840939  184.65423051378946 108.50516936896975L 184.65423051378946 108.50516936896975L 191.5772332219766 105.54325554469435Q 193.88490079137233 104.55595093660253  194.96750485549433 103.527180583051Q 196.04091502491752 102.50234371399387  196.26900710104428 101.0016525382991Q 196.50629307186983 99.49702787810995  196.12583280653365 96.85359261570983L 196.12583280653365 96.85359261570983L 195.878685380286 95.20816922044067L 198.3880511214274 95.04822054996846L 203.08069812323424 106.01653692562216L 202.1016915816764 107.26202726745018L 201.28788865697067 106.78356640202816Q 200.1944772847138 106.18544302761495  198.20859602977566 107.03507567840313L 198.20859602977566 107.03507567840313L 171.21532119413507 118.58378615393117L 169.63022426007953 116.83642594216951L 170.80732653733816 115.87599362863955Q 172.8764730635574 114.15322473728038  173.18460904791755 112.73793246529468Q 173.48881154778337 111.31344629861022  172.30876619946645 108.5552778889739L 172.30876619946645 108.5552778889739L 161.58215398326584 83.4835270453799Q 159.9340239801166 79.63128516658787  158.2756123516489 77.53460424890793Q 156.61720072318124 75.437923331228  154.11276161188258 74.00775385253063L 154.11276161188258 74.00775385253063L 152.78443163249418 73.21646410417162L 153.18052578671222 71.82880080891796L 172.80029707392512 63.434744897890425Q 178.31663389319772 61.07465420125663  179.53515462328042 58.96531609882765L 179.53515462328042 58.96531609882765L 180.3356382663382 57.63305263494485L 181.72330156159188 58.029146789162915L 186.60475581912945 69.4387701103584L 184.74702157834673 71.14722657472132L 183.7367808920997 69.82828239248647Q 182.07836926363203 67.73160147480652  180.83543818795272 66.86026781821408Q 179.58331321757467 65.99286764611605  178.10082066073494 66.06153946649923Q 176.60913420919638 66.13414477137684  174.3014666398007 67.12144937946866L 174.3014666398007 67.12144937946866L 168.08639382342022 69.78048489767606Q 166.34874772534937 70.5239134671157  165.6457944879333 71.27061069223862Q 164.94677473501162 72.0265018120603  165.0655386839257 73.19388997562818Q 165.1803691483454 74.35208424449726  166.06146967508866 76.41151665702571L 166.06146967508866 76.41151665702571L 171.3284054130764 88.72214165870241L 179.47419611620228 85.23707439667317Q 181.01877042559863 84.57624900161571  181.91763847365178 83.39767518882792Q 182.81257303721054 82.20990748134139  183.2773835725352 80.11848424195361L 183.2773835725352 80.11848424195361L 183.48936336959932 79.19027921846111L 185.0701930387988 79.35145476554763L 189.76284004060565 90.31977114120133L 187.91036621002735 92.01510022637106L 186.89486511357592 90.70928342332937Q 185.39260781708072 88.77420641836886  183.63448758981988 88.65625190808503Q 181.87243387806467 88.52910350310242  178.34197831373018 90.03956154894804L 178.34197831373018 90.03956154894804L 172.8899987573491 92.37211785412111ZM 214.25741963711297 61.75576795673062L 217.95509124717168 86.87506979145856Q 218.56530172555475 91.02039766414505  219.63357679598644 93.47094625046081Q 220.70185186641817 95.92149483677656  222.75826107853166 97.94356831524729L 222.75826107853166 97.94356831524729L 223.84060271626996 99.04771349556461L 223.10341593145955 100.28830031006042L 209.99468220518364 102.21796351735769L 208.81848310092957 99.99556488813926L 210.35015123317405 99.34557047841969Q 212.85975905996742 98.19784727324456  213.56811991615814 96.8301028170625Q 214.28491780670277 95.45100862734566  213.8174295881802 92.27523238120637L 213.8174295881802 92.27523238120637L 209.2270156791983 61.09128618858627Q 208.75952746067574 57.915509942446974  207.675729473347 56.80147137818528Q 206.60328121955305 55.69586984827757  203.86939555583604 55.32001192602139L 203.86939555583604 55.32001192602139L 202.2153940579969 55.13896208441478L 202.70128345639517 52.67189672400697L 213.8115536259105 51.036416133973134L 245.9273910837669 86.28503432505332L 241.51902087358667 56.33776112547813Q 241.05153265506408 53.16198487933884  239.9776280516797 52.046489965486735Q 238.8952864139414 50.942344785169425  236.16140075022437 50.566486862913244L 236.16140075022437 50.566486862913244L 234.50739925238523 50.38543702130664L 234.99328865078348 47.918371660898835L 248.1020223770594 45.98870845360157L 249.16543147012234 46.96423964264219L 248.4471772299873 48.333440448414684Q 247.06068882946377 50.86232358434917  246.74389014768522 53.51676111332275Q 246.42709146590664 56.17119864229631  247.03730194428968 60.316526514982804L 247.03730194428968 60.316526514982804L 251.3946999188055 89.91753127650546Q 251.58839441433042 91.23335134110522  251.91703249316623 92.02391886708836Q 252.24712692159247 92.82437977701586  252.9132953409384 93.50461476366837L 252.9132953409384 93.50461476366837L 253.9956369786767 94.60875994398569L 253.25845019386628 95.84934675848149L 246.29350789703744 96.87461687013227L 214.25741963711297 61.75576795673062ZM 301.863725926581 59.51286175799706Q 301.4185978920374 56.8769063272541  300.748177669407 55.51505584901196Q 300.06780508665764 54.15223042048381  298.7351244449787 53.49918960453578Q 297.3924914431806 52.84517383830172  294.8944490532922 52.60046131651207L 294.8944490532922 52.60046131651207L 291.7694079759019 52.29432692670351Q 290.31636339851667 52.15198418494539  289.77003721427076 53.11329979410155Q 289.2137586699057 54.07364045297169  288.8939749760929 57.33801457202904L 288.8939749760929 57.33801457202904L 285.82093167457515 88.70785366736067Q 285.5079726327645 91.90256126558448  286.2907936675627 93.24527911661555Q 287.07458965264686 94.57804460752753  289.6368939121793 95.60273816249031L 289.6368939121793 95.60273816249031L 291.18832361921903 96.17672933325389L 290.1212621514311 98.45354285744999L 274.9240082496001 96.96479377070581L 274.1275379107977 95.76140896134183L 275.15507146738554 94.60608442248449Q 277.11102069388824 92.48668294486323  278.0592230760155 89.98722055416232Q 279.0074254581426 87.4877581634614  279.41592962798273 83.31771927356802L 279.41592962798273 83.31771927356802L 282.0268464939296 56.665298874679024Q 282.3466301877424 53.400924755621666  281.98729160115226 52.35088867043818Q 281.6379053746812 51.301827535540724  280.184860797296 51.15948479378261L 280.184860797296 51.15948479378261L 277.0598197199057 50.85335040397405Q 274.56177733001726 50.6086378821844  273.1177494984737 50.98966756833439Q 271.6836740270492 51.37167220477039  270.7517642705081 52.576555686964184Q 269.82980687408605 53.782414119444  268.8816044919589 56.28187651014492L 268.8816044919589 56.28187651014492L 268.3165907310283 57.844233527589765L 266.0298248467132 56.77619710951581L 267.2397381516572 44.42531820174089L 268.4431229610212 43.628847862938485L 269.6083998599976 44.65735636981235Q 271.40676734145956 46.300516252970475  277.37818341290597 46.885486424579184L 277.37818341290597 46.885486424579184L 295.35214578795956 48.64624664112142Q 301.3235618594059 49.23121681273014  303.4066148243841 47.968287541117675L 303.4066148243841 47.968287541117675L 304.74933267541513 47.18546650631947L 305.7752765327245 48.20032570918914L 304.5653632277805 60.55120461696406L 302.1148056954149 61.15516469889509L 301.863725926581 59.51286175799706ZM 351.4378216646161 117.95783512712542L 351.6941961252072 115.45648106663005L 353.3288926406274 115.76675079198729Q 356.05325771569676 116.20633575276509  357.40201219918447 115.46245313885899Q 358.76408672926596 114.71381906636205  360.1393451037316 111.8133424842359L 360.1393451037316 111.8133424842359L 366.14592529376534 99.14521734984075L 345.5353736307444 89.37274273253195L 339.3188630346396 102.48361974394948Q 338.0335748342044 105.19434552163744  338.2827470657844 106.62948077624219Q 338.5362035913659 108.05558027825465  340.5375371220658 109.85668108023549L 340.5375371220658 109.85668108023549L 341.6768166524798 110.86168961332362L 340.03470189314197 112.55105609729476L 324.59260071291277 105.22919764881566L 324.84897517350396 102.72784358832031L 326.47463593633177 103.03382901967608Q 329.1990010114012 103.47341398045393  330.5567912474812 102.73381566054925Q 331.9188657775627 101.98518158805231  333.29412415202836 99.08470500592617L 333.29412415202836 99.08470500592617L 346.7982188446007 70.60401283501781Q 348.1734772190663 67.70353625289167  347.8910447773503 66.17516067213073Q 347.604328041633 64.65582084396209  345.5397442427869 62.82472998397107L 345.5397442427869 62.82472998397107L 344.273964176081 61.75974133486267L 346.04834507217737 59.978148666611006L 359.8459392806092 66.52026560682607L 360.18835183834545 67.92214065129494L 358.8305616022654 68.66173897119958Q 356.2729530308728 69.99449491117463  354.53510249703794 72.02581849988475Q 352.79725196320317 74.05714208859487  351.0021327765954 77.84312242476575L 351.0021327765954 77.84312242476575L 347.3561985813609 85.53254788080731L 367.96675024438184 95.30502249811612L 373.64343979630394 83.33265031332755Q 375.01869817076954 80.4321737312014  374.73626572905357 78.90379815044047Q 374.45858474592853 77.38874261627325  372.39400094708253 75.55765175628228L 372.39400094708253 75.55765175628228L 371.11918512778425 74.4883788131724L 372.8935660238807 72.70678614492077L 386.6911602323125 79.24890308513584L 387.0335727900487 80.65077812960467L 385.6757825539687 81.39037644950935Q 383.1181739825761 82.72313238948439  381.38032344874125 84.75445597819449Q 379.6515086674988 86.79006386090606  377.856389480891 90.57604419707694L 377.856389480891 90.57604419707694L 366.1731197389352 115.21654151626066Q 364.8878315385 117.92726729394863  365.12796801748766 119.35811825455193Q 365.38142454306916 120.78421775656439  367.38275807376914 122.58531855854525L 367.38275807376914 122.58531855854525L 368.53107335677527 123.5946113856348L 366.8799228448452 125.2796935756045L 351.4378216646161 117.95783512712542ZM 394.52791736112886 148.3633245524839L 395.42996855973956 146.0162404817517L 396.918895251481 146.73700209741935Q 398.4686189854153 147.50976101744604  399.4783684085662 147.45226230053473Q 400.4816181686722 147.4023632138974  401.30057571232646 146.44480979936026L 401.30057571232646 146.44480979936026Q 402.0220383103076 145.6012508389347  402.93828894256785 143.34526219116123L 402.93828894256785 143.34526219116123L 406.7436835628155 133.75713558664722L 394.4930795609596 123.279678758308L 389.91561281534257 126.06244683933282Q 385.5733340469008 128.67792291399684  383.9419186226371 130.58543011279698L 383.9419186226371 130.58543011279698Q 382.3949988179567 132.39414211803376  381.91022630210824 134.45333992491828L 381.91022630210824 134.45333992491828L 381.5765451287674 135.81277248100844L 379.8378320412855 135.79947588673969L 370.0875063996099 127.46040820016454L 370.9895575982206 125.11332412943229L 372.48608392023607 125.84058540814488Q 375.10685482116656 127.06881986655907  376.869266486039 126.93132396290548Q 378.6457774442305 126.7927280920227  381.5833278723352 125.0812090350613L 381.5833278723352 125.0812090350613L 410.3918609399266 108.24430544522357Q 412.46435534107985 106.99036487359012  413.1923176021059 106.13920628289046L 413.1923176021059 106.13920628289046Q 414.0112751457602 105.18165286835332  413.90497888584696 104.18280297716424Q 413.8051822889787 103.17635345570105  412.80143025081395 101.76522559264959L 412.80143025081395 101.76522559264959L 411.85847525484206 100.40609503395711L 414.0372643395023 99.150954354764L 424.2663666884465 107.8995008131663L 408.62991131621936 147.75253286083304Q 407.38707843923993 150.9134767768017  407.30588587415673 153.05466984781955Q 407.2235933418442 155.1817636255185  407.87126587716784 158.30160661627747L 407.87126587716784 158.30160661627747L 406.4517372611983 158.56129586989346L 394.52791736112886 148.3633245524839ZM 416.0505812842193 110.32069270801628L 398.42457930968396 120.94448931721755L 408.44089201095323 129.51104521036336L 416.0505812842193 110.32069270801628ZM 438.51477370206055 159.09509274686098L 454.5546304694942 157.2660233440738Q 456.35216008732425 157.00797824525597  457.366982843222 156.2781599294321L 457.366982843222 156.2781599294321Q 458.5035843298275 155.46076341570935  458.77729469406415 154.17998918247798Q 459.0649621868746 152.90149498476714  458.66016406838827 151.73915317476897L 458.66016406838827 151.73915317476897L 458.06113852358874 150.1868425110558L 460.4756803770046 149.485067876217L 468.2117545247378 160.2421890887336L 467.8337810693732 161.6348972660054L 466.20591092818336 161.51226446687517Q 462.4025610358707 161.24202457965384  457.3080796826058 161.81409078319732L 457.3080796826058 161.81409078319732L 435.4251705208652 164.23623582819494L 425.8046507949541 171.15491346220537Q 423.2554160321389 172.988217071555  422.7478221794695 174.5603648002154Q 422.2425083623208 176.11855540030217  423.2214224485647 178.6786778996668L 423.2214224485647 178.6786778996668L 423.8204479933642 180.23098856337998L 421.40590613994834 180.9327631982188L 412.49044559384373 168.53568841217137L 412.8684190492084 167.14298023489962L 414.414549539026 167.15195288536927Q 417.4113906541653 167.13998080909076  419.93119715874434 166.2762822624431Q 422.4370465347496 165.41030368027486  425.7819023381887 163.00482251131933L 425.7819023381887 163.00482251131933L 431.1076921611402 159.1747359898756L 440.5042950499419 138.6708472331015Q 442.1182547067017 135.1944792683498  442.8002389207369 132.9056809959355Q 443.4682660061983 130.61460268800053  443.56294315833406 127.88595169586847L 443.56294315833406 127.88595169586847L 445.0035320815382 127.97082545118388L 454.1642115817597 140.7088806832129L 452.7305455448111 142.77457710197834L 451.44955910804833 141.71270434649878Q 450.13354139212595 140.60212009873618  449.139026752382 140.4181618661532Q 448.14679214815874 140.22024650499654  447.12385081021375 140.95590336734702L 447.12385081021375 140.95590336734702Q 446.4987199925807 141.40547144989455  445.73945009644865 143.1586141208793Q 444.9882987823639 144.90591824533757  444.8267578877709 145.28075759675906L 444.8267578877709 145.28075759675906L 438.51477370206055 159.09509274686098ZM 456.76260279486286 197.31688047488532L 443.7096884964987 202.80568984664905Q 441.6448206978875 203.67397607495064  440.75727468156924 204.42687850482957Q 439.8605105054357 205.1836572125133  439.8377179068583 206.21296790295142Q 439.8241434680963 207.23840231558458  440.5567599732258 208.98063452066285L 440.5567599732258 208.98063452066285L 443.4755971603289 215.92190886153023Q 444.4485428893633 218.23566697515267  445.4705660924437 219.32464290342898Q 446.48871301771914 220.40440067189007  447.9879578582771 220.64181362027398Q 449.49107897664004 220.8884447284731  452.13682737750844 220.5244180820551L 452.13682737750844 220.5244180820551L 453.78375477556676 220.28750006770292L 453.9281071908531 222.7978112795253L 442.930842531285 227.42221070079233L 441.691459770444 226.43548359964925L 442.17496835932604 225.6246695368227Q 442.77987463023976 224.53499600616811  441.9425986243775 222.54387348607867L 441.9425986243775 222.54387348607867L 430.56184698913864 195.47935626856662L 432.319023236956 193.90514801229727L 433.27212250871366 195.0881956775142Q 434.98200048815505 197.16800751886456  436.39535068196517 197.4849321623634Q 437.81791903559053 197.79798052805748  440.5833669801592 196.63509718658213L 440.5833669801592 196.63509718658213L 465.7212887962884 186.06448761257104Q 469.58369775886933 184.44032721231045  471.6906435448541 182.7949763515756Q 473.79758933083895 181.14962549084072  475.24329375028583 178.65412178785985L 475.24329375028583 178.65412178785985L 476.04282244694195 177.33073451905926L 477.4279976264951 177.73544394809431L 485.69997446218986 197.40699699379275Q 488.0257411451406 202.9378928829301  490.12746665012304 204.1694974873817L 490.12746665012304 204.1694974873817L 491.4547301967285 204.97824434385296L 491.05002076769347 206.36341952340615L 479.61028443699433 211.17388027930926L 477.91340489494473 209.3055655788979L 479.2386012351949 208.30354029988177Q 481.34554702117975 206.65818943914684  482.22458741295077 205.4206968170942Q 483.0997515269171 204.17398603522625  483.0402932224253 202.6910953750537Q 482.9769586401287 201.19898655506591  482.0040129110944 198.88522844144347L 482.0040129110944 198.88522844144347L 479.3836491149699 192.6537524063487Q 478.6510326098404 190.91152020127043  477.9087179437537 190.20394056864055Q 477.1571851178518 189.50023721381555  475.9890814953741 189.61174473443342Q 474.8301960327115 189.71937597724624  472.76532823410025 190.58766220554784L 472.76532823410025 190.58766220554784L 460.42221224150876 195.7779981863329L 463.856594376666 203.94528778262574Q 464.50780904789224 205.4939386315842  465.6807745512383 206.40011296798968Q 466.8629582143996 207.3024110265903  468.9514527478642 207.78020866543824L 468.9514527478642 207.78020866543824L 469.87832261071225 207.99795222411237L 469.70732691982323 209.57774982940782L 458.71006226025514 214.20214925067486L 457.0262771558256 212.33917643227377L 458.33837905845564 211.33180927124738Q 460.28275371076 209.84160552293767  460.4116308806062 208.08425220755328Q 460.54972621026764 206.32302261436396  459.0612355331792 202.78324924531606L 459.0612355331792 202.78324924531606L 456.76260279486286 197.31688047488532ZM 452.35374627851473 250.6357035281191Q 453.1800928970098 254.59028963365552  455.7331682867223 256.590366145803Q 458.2841982640129 258.5806540784813  461.9059726675983 257.8238514823349L 461.9059726675983 257.8238514823349Q 464.84254650834316 257.21022775572965  466.5754115168267 255.28508390074813Q 468.3180651047795 253.3578946333446  469.1458489749093 250.8658926541414Q 469.9834214245082 248.3718452625161  470.8889234075535 244.19839750811673L 470.8889234075535 244.19839750811673Q 471.95191710767995 239.40972917615935  473.0482279293964 236.44276059152833Q 474.1327047592217 233.4680488398502  476.4791808957752 231.05712583390718Q 478.8236116199066 228.6364142484951  482.9152378380112 227.78143185609184L 482.9152378380112 227.78143185609184Q 486.3999721290284 227.05326503385368  489.79398586809896 228.09098885983076Q 493.17821102770034 229.13075809823002  495.71799501623036 232.09391474133986Q 498.26756758422954 235.0550259720278  499.28004673312813 239.90037280925685L 499.28004673312813 239.90037280925685Q 500.20661856030205 244.3345993087816  499.680240280708 248.1223461201157Q 499.15181658869193 251.90030435198062  497.26832606489245 254.3268581730935Q 495.3827901286709 256.74362341473716  492.44621628792595 257.3572471413424L 492.44621628792595 257.3572471413424Q 488.97127057637783 258.08336855115857  486.27648128553665 256.48067997318486Q 483.5894351617425 254.86615740332  482.9328577742749 251.72402339372294L 482.9328577742749 251.72402339372294Q 482.63422756066035 250.29489079122717  483.456468236069 250.1230761477777L 483.456468236069 250.1230761477777Q 483.6620284049211 250.08012248691534  484.7419885257968 250.4571982582374Q 485.8121600672033 250.83631944198163  487.0984103214304 251.0272652026072Q 488.38670598807937 251.22799954270195  490.09970739518053 250.87005236884892L 490.09970739518053 250.87005236884892Q 493.30057288159253 250.2012025068492  494.78857388285763 247.39757039470717Q 496.2667863046536 244.59598369498715  495.4527121606906 240.70012906626565L 495.4527121606906 240.70012906626565Q 494.61000224281946 236.66723432497596  491.86334767692864 234.96300761010772Q 489.1264816905069 233.25673548281736  485.84730756834176 233.9419486441932L 485.84730756834176 233.9419486441932Q 483.3218540653012 234.46966504907368  481.7822767511376 236.293123766378Q 480.23086544508294 238.1088393166351  479.449102094595 240.47884903472362Q 478.6575501646378 242.85090416523406  477.7397757070605 246.9656204428185L 477.7397757070605 246.9656204428185Q 476.6935837889512 251.88358572029685  475.5541748252967 255.08431176504732Q 474.4029318697511 258.2772946427507  471.91094248908314 260.8718637643272Q 469.4266962754624 263.4545988940126  465.1197213090366 264.3545803597002L 465.1197213090366 264.3545803597002Q 459.05080203816385 265.622736061351  454.5801814794413 262.3172781778003Q 450.1095609207187 259.01182029424973  448.5264117060772 251.43545978512793L 448.5264117060772 251.43545978512793Q 447.49756925780247 246.5118043121456  448.0996252773041 242.4017643428288Q 448.6996358843837 238.28193579404282  450.7477783285951 235.61665672268464Q 452.78408678091523 232.94363448427927  455.9947408467963 232.27273920985758L 455.9947408467963 232.27273920985758Q 459.47947513781355 231.54457238761938  462.19515703551593 233.2961350700524Q 464.9087935207963 235.0379091730162  465.60832456912624 238.3856033514653L 465.60832456912624 238.3856033514653Q 465.7658213256216 239.13932397058988  465.6024848531326 239.5310141501385Q 465.43710296822155 239.91291575021802  465.09450268680126 239.98450518498865L 465.09450268680126 239.98450518498865Q 464.88894251794915 240.02745884585102  463.842000477684 239.61283568643339Q 462.78322444552776 239.19046935996857  461.4594268032052 238.96650551873245Q 460.1258405814135 238.7445870899183  458.4226277537815 239.10048885134933L 458.4226277537815 239.10048885134933Q 454.8008533501961 239.85729144749575  453.12015013803455 243.0587499764525Q 451.43944692587297 246.2602085054092  452.35374627851473 250.6357035281191L 452.35374627851473 250.6357035281191Z" data-textpath="SARGENT HAYES" data-text-anchor="middle" data-font-size="100" data-letterspacing="0" data-side="left" data-offset="0.5" data-dx="0" data-dy="0" data-xmlspace="preserve" data-href="" data-font="Gabriela" data-font-src="/Content/clientfonts/gabriela.woff" data-font-scale="contain" transform="translate(0,0)" data-x="0" data-y="0" fill="url('#linearGradientSkliol8srv')"></path>
        </g>
      </svg>
    </g>
    <g transform="matrix(0.6628,0,0,0.6801,118.8929,255.3247)">
      <svg width="688" height="443" style="overflow: visible;">
        <defs>
          <linearGradient x1="0" y1="0.5" x2="1" y2="0.5" id="linearGradientSkliol8sry">
            <stop offset="0%" stop-color="#000000"></stop>
            <stop offset="100%" stop-color="#000000"></stop>
          </linearGradient>
        </defs>
        <g>
          <path d="M 55.04185620434187 111.8522542054616Q 49.57923131999412 105.80496312821845  43.24479664771628 104.63132034498146Q 36.910361975438434 103.45767756174448  31.430270640861078 106.35743599387122L 31.430270640861078 106.35743599387122Q 27.983116414272093 108.18147758827354  25.687187533639605 111.43281740057824Q 23.391258653007107 114.68415721288295  22.99012992557939 118.62992656042877Q 22.58900119815165 122.5756959079746  24.693664576308166 126.55318155403882L 24.693664576308166 126.55318155403882Q 27.874044792189125 132.5636043080914  33.06715609261228 134.68058211180534Q 38.26026739303541 136.79755991551926  44.00552443735038 133.7574905915154L 44.00552443735038 133.7574905915154Q 48.33656436306474 131.4657460241894  50.13090003516169 127.80100053564037L 50.13090003516169 127.80100053564037L 48.2652401681392 124.4890051762563Q 45.80702251033254 120.69860071936156  43.69402798230383 119.27110146383787Q 41.581033454275115 117.84360220831417  39.982512196462444 117.38837722182839Q 38.38399093864977 116.9331522353426  38.1969097494803 116.57959795569245L 38.1969097494803 116.57959795569245Q 37.82274737114136 115.87248939639214  38.42343527417644 114.76268128543452Q 39.024123177211536 113.65287317447691  39.996397446249446 113.13839990426087L 39.996397446249446 113.13839990426087Q 43.178385963100816 111.45466920173565  45.94874066555876 114.23138215459362Q 48.71909536801671 117.00809510745158  52.58042194459438 123.45015666172245L 52.58042194459438 123.45015666172245Q 55.5114945999969 128.34799425486  57.702171573351166 131.2051667030009Q 59.89284854670542 134.06233915114183  62.67390937375037 135.3626086140902Q 65.4549702007953 136.66287807703858  68.54857014773414 135.02591767180573L 68.54857014773414 135.02591767180573Q 71.11183867519773 133.6695790503271  72.05577680853858 131.92559487596512Q 72.99971494187942 130.18161070160315  73.66045527912995 127.79552138920722L 73.66045527912995 127.79552138920722Q 74.0247156833671 126.13199671012819  74.46665853292978 125.89814522366636L 74.46665853292978 125.89814522366636Q 75.08537852231755 125.5707531426198  76.09371696406085 126.62111193222587Q 77.10205540580414 127.67147072183191  77.85038016248203 129.08568784043257L 77.85038016248203 129.08568784043257Q 79.90827324334616 132.9747849165842  78.8390782169022 137.04778405670535Q 77.76988319045823 141.12078319682647  73.70400897448148 143.27221687227535L 73.70400897448148 143.27221687227535Q 63.45093486462708 148.69757135818992  52.77619888213783 131.9449592721853L 52.77619888213783 131.9449592721853Q 52.037374024319135 134.8249137561085  50.25889650148138 137.23676319186535Q 48.48041897864363 139.64861262762224  45.82876188126748 141.05172154639325L 45.82876188126748 141.05172154639325Q 42.11644194494089 143.01607403267266  37.52599144702503 142.78636938277654Q 32.93554094910915 142.55666473288036  28.226191808490164 139.1089073934275Q 23.51684266787118 135.6611500539746  19.72844858718946 128.50167589105902L 19.72844858718946 128.50167589105902Q 14.256323803982525 118.1602132112921  15.846350351042524 109.51242068489299Q 17.43637689810252 100.86462815849386  26.0100681796187 96.32790932113426L 26.0100681796187 96.32790932113426Q 32.02049093367128 93.14752910525331  38.770706256908234 94.8931215805857Q 45.52092158014519 96.63871405591809  51.669644849861854 103.34119137049699L 51.669644849861854 103.34119137049699Q 49.95025204987388 96.67083242967907  51.86449155278044 91.41529372032566Q 53.778731055687004 86.15975501097226  59.70076523982705 83.02614509238367L 59.70076523982705 83.02614509238367Q 63.85502802571633 80.82794111964242  68.78852771631666 81.38523888820644Q 73.722027406917 81.94253665677046  78.59507258805927 85.69965399091723Q 83.46811776920154 89.456771325064  87.16297125529852 96.4394683481545L 87.16297125529852 96.4394683481545Q 89.3144049307474 100.50534256413123  89.74503854285919 104.63324211379565Q 90.17567215497098 108.76114166346005  88.84151245641073 112.01268251338604Q 87.50735275785044 115.26422336331207  84.41375281091162 116.90118376854491L 84.41375281091162 116.90118376854491Q 80.96659858432264 118.72522536294723  77.7461709200511 117.7705811050194Q 74.52574325577956 116.81593684709154  72.65493136408489 113.28039405059002L 72.65493136408489 113.28039405059002Q 71.6727551209452 111.42423408242675  72.55664082007057 110.95653110950309L 72.55664082007057 110.95653110950309Q 72.73341795989565 110.86299051491835  74.68291748502237 111.01936059367593Q 76.63241701014908 111.1757306724335  79.4608512473503 109.67908115907777L 79.4608512473503 109.67908115907777Q 82.81961690402674 107.90180986196782  83.70668172835212 104.6605730613862Q 84.59374655267752 101.41933626080461  82.58262376910574 97.61862775456547L 82.58262376910574 97.61862775456547Q 79.82317622885608 92.40370212972573  74.89760561288534 91.21995633476564Q 69.97203499691462 90.03621053980557  65.37582936146264 92.46826599900865L 65.37582936146264 92.46826599900865Q 59.453795177322604 95.60187591759723  57.86457278074781 100.40259171570744Q 56.27535038417302 105.20330751381769  58.707405843376094 109.79951314926967L 58.707405843376094 109.79951314926967Q 58.98802762713029 110.32984456874489  58.556388826912006 111.0107909294416Q 58.1247500266937 111.69173729013832  57.417641467393395 112.06589966847724L 57.417641467393395 112.06589966847724Q 56.79892147800563 112.39329174952381  56.060699733050846 112.38793868723033Q 55.322477988096075 112.38258562493684  55.04185620434187 111.8522542054616L 55.04185620434187 111.8522542054616ZM 104.34296820861833 235.28903635319148L 105.77530841877186 231.9801994695755L 107.86963011375416 233.1043954657997Q 110.03726901759882 234.29659577721515  111.48714286256624 234.27746899809932Q 112.93701670753369 234.25834221898347  114.161094380976 232.93863245946054L 114.161094380976 232.93863245946054Q 115.24916342403583 231.76555711766238  116.68681652786046 228.59804175810004L 116.68681652786046 228.59804175810004L 122.68819462923949 215.06942538818663L 105.75191938202855 199.36042857901043L 99.02799136037086 203.08048126137476Q 92.64939780834048 206.57526942348085  90.20124246145588 209.2146889425267L 90.20124246145588 209.2146889425267Q 87.88909574495374 211.70747404384778  87.07942015886366 214.6390990958095L 87.07942015886366 214.6390990958095L 86.51519736518284 216.57084769205363L 84.03410135373768 216.4518410452182L 70.54373492305884 203.93904705003018L 71.97607513321236 200.63021016641426L 74.07039682819463 201.75440616263845Q 77.75113264979368 203.66808947280174  80.29492008275892 203.57245738672117Q 82.83870751572417 203.47682530064054  87.13998135631931 201.19230273603065L 87.13998135631931 201.19230273603065L 129.38873361415386 178.72960181525715Q 132.439365312951 177.05818138990207  133.52743435601082 175.88510604810392L 133.52743435601082 175.88510604810392Q 134.75151202945312 174.56539628858098  134.6617244883105 173.11817889044912Q 134.57193694716784 171.67096149231725  133.22034982561803 169.5989546745532L 133.22034982561803 169.5989546745532L 131.94207991293064 167.5949521719804L 135.13403313578135 165.91821885295417L 149.2842544462217 179.04305168486334L 124.57851061664235 235.23590017848576Q 122.62338745964351 239.6965608292153  122.38431086343908 242.7482558305461Q 122.14523426723468 245.79995083187688  122.88053296092582 250.30098802690827L 122.88053296092582 250.30098802690827L 120.83934020265495 250.59000727122032L 104.34296820861833 235.28903635319148ZM 137.36755698774425 182.03843507987597L 111.50784830999547 196.24285224855856L 125.36480078498624 209.09566781970275L 137.36755698774425 182.03843507987597ZM 164.47689395746917 272.7414105826592Q 169.50987921451463 275.6239544942697  174.08138428302206 274.7850019279043Q 178.6528893515295 273.94604936153894  181.28693809834596 269.3469421438939L 181.28693809834596 269.3469421438939Q 183.4239965155744 265.6155910050498  183.00590413097638 261.9189440435533Q 182.58781174637832 258.22229708205685  180.71188611649245 254.95834196117403Q 178.8359604866066 251.69438684029117  175.2190022692913 246.74185079759593L 175.2190022692913 246.74185079759593Q 171.1066353207705 241.04462005970987  168.95855120839803 237.04859270167378Q 166.8104670960256 233.05256534363764  166.45548700161513 228.2396671385462Q 166.10050690720462 223.42676893345478  169.08244888473268 218.22023246064907L 169.08244888473268 218.22023246064907Q 171.61709956563158 213.79467645876423  175.95470892536053 211.15078821559064Q 180.29231828508952 208.50689997241705  185.88619696110183 208.5992111746358Q 191.48007563711408 208.69152237685446  197.64114379660086 212.2201537169294L 197.64114379660086 212.2201537169294Q 203.281558308807 215.45059085925146  206.83107000489403 219.61543980241146Q 210.38058170098114 223.7802887455715  211.188768921444 228.10369404888053Q 211.99695614190688 232.42709935218954  209.8598977246784 236.1584504910336L 209.8598977246784 236.1584504910336Q 207.32524704377954 240.58400649291843  203.03852291579616 241.93178104771815Q 198.75179878781285 243.2795556025178  194.7601208253285 240.99340008641298L 194.7601208253285 240.99340008641298Q 192.9378330598465 239.94972039427813  193.5342214553521 238.908413099717L 193.5342214553521 238.908413099717Q 193.68331855422852 238.64808627607673  195.11669768263255 237.85566954590522Q 196.55007681103655 237.06325281573368  197.98385133903622 235.86772339206425Q 199.41762586703584 234.67219396839477  200.66010169100588 232.5028037713924L 200.66010169100588 232.5028037713924Q 202.99595624006952 228.42435020102795  201.40008192007147 224.16839141894715Q 199.80420760007337 219.91243263686636  194.857997950908 217.0795877582147L 194.857997950908 217.0795877582147Q 189.73823708598235 214.1473448136454  185.29650002969947 215.4639586229469Q 180.8547629734166 216.78057243224848  178.46920939139414 220.94580161049305L 178.46920939139414 220.94580161049305Q 176.6303451719185 224.15649910205656  177.11075904751286 227.54312020695392Q 177.5911729231072 230.9297413118513  179.38663417413176 234.03237227541587Q 181.18209542515623 237.1350032389804  184.7122780345914 242.03784024871683L 184.7122780345914 242.03784024871683Q 188.99819619887245 247.8344690525205  191.33205858544693 252.10975692125317Q 193.66592097202147 256.38504478998584  194.0702046997951 261.5142800806951Q 194.4744884275689 266.64351537140436  191.3434493511644 272.11037866785034L 191.3434493511644 272.11037866785034Q 186.9202354178311 279.83340776917885  179.12303800214895 281.4754225257751Q 171.32584058646682 283.1174372823715  161.6937481117763 277.60084462394457L 161.6937481117763 277.60084462394457Q 155.44590434440943 274.02251425091083  151.60530047877958 269.46046844367606Q 147.76469661314968 264.8984226364412  146.84527966792297 260.16559341061554Q 145.9258627226962 255.43276418478985  148.26171727175986 251.35431061442537L 148.26171727175986 251.35431061442537Q 150.79636795265873 246.9287546125405  155.25664329640225 245.68037812365844Q 159.71691864014576 244.43200163477633  163.96892342627046 246.8672542497576L 163.96892342627046 246.8672542497576Q 164.92345511295144 247.41394361230442  165.18338653699612 247.96615340467875Q 165.44331796104078 248.51836319705308  165.19482279624677 248.95224123645357L 165.19482279624677 248.95224123645357Q 165.0457256973704 249.21256806009382  163.59380828150574 249.93674746984593Q 162.14189086564107 250.66092687959804  160.63987901722194 251.87499459072808Q 159.13786716880287 253.08906230185818  157.89539134483283 255.25845249886055L 157.89539134483283 255.25845249886055Q 155.26134259801637 259.8575597165056  157.09229882557972 264.70911609490076Q 158.92325505314307 269.560672473296  164.47689395746917 272.7414105826592L 164.47689395746917 272.7414105826592ZM 229.59072368542616 301.67676323645816Q 235.0953330446697 303.5041317822443  239.4097242278892 301.77539562014266Q 243.7241154111087 300.04665945804095  245.39395218570638 295.0165853883874L 245.39395218570638 295.0165853883874Q 246.74872541792718 290.9355818979137  245.60596077086203 287.39523036714473Q 244.463196123797 283.85487883637575  241.9773374719784 281.02768822320894Q 239.4914788201598 278.20049761004213  234.96434243269462 274.06346532478153L 234.96434243269462 274.06346532478153Q 229.8039749988362 269.2947539739475  226.9062057706981 265.80398994576456Q 224.00843654256005 262.3132259175816  222.70620014828194 257.6662720364442Q 221.40396375400388 253.01931815530685  223.29434500826542 247.32489468022732L 223.29434500826542 247.32489468022732Q 224.90116907438772 242.48463472640975  228.6284247569558 239.0331763278826Q 232.3556804395239 235.5817179293554  237.85679784192317 234.5630387232165Q 243.3579152443225 233.54435951707768  250.09631635649987 235.78131066795382L 250.09631635649987 235.78131066795382Q 256.26527512116934 237.8292236934038  260.57012105054866 241.2075815081278Q 264.8749669799279 244.5859393228518  266.524355263628 248.66325685887875Q 268.173743547328 252.74057439490565  266.81897031510726 256.8215778853793L 266.81897031510726 256.8215778853793Q 265.21214624898494 261.6618378391969  261.2777712926424 263.8328269462411Q 257.34339633629986 266.00381605328516  252.97767167207215 264.5545237583513L 252.97767167207215 264.5545237583513Q 250.98462345579438 263.8928903193598  251.36269970664668 262.7540056243439L 251.36269970664668 262.7540056243439Q 251.45721876935977 262.46928445058995  252.70501772099036 261.4083896507584Q 253.952816672621 260.3474948509269  255.1210737482475 258.89141263990706Q 256.2893308238741 257.4353304288872  257.0769896798164 255.0626539809374L 257.0769896798164 255.0626539809374Q 258.55778832898795 250.60202225879178  256.1497255747513 246.74699518085083Q 253.74166282051468 242.8919681029098  248.3319605191891 241.09610591136135L 248.3319605191891 241.09610591136135Q 242.73244410202759 239.2372310113375  238.63995538168916 241.4084141159841Q 234.54746666135077 243.57959722063066  233.03516165794153 248.13513600069427L 233.03516165794153 248.13513600069427Q 231.86942655114694 251.64669714366  233.01180320300708 254.8708211464373Q 234.1541798548672 258.0949451492146  236.52918427404646 260.7799691731069Q 238.90418869322576 263.4649931969992  243.33641802277305 267.5705191280221L 243.33641802277305 267.5705191280221Q 248.6865995724674 272.4022431873315  251.8218304430029 276.1298868651046Q 254.9570613135384 279.85753054287756  256.37034593805834 284.8047647772853Q 257.7836305625781 289.751999011693  255.7987302456035 295.7311436605265L 255.7987302456035 295.7311436605265Q 252.9946647184489 304.17787181522783  245.6778579977307 307.3333178077387Q 238.36105127701254 310.48876380024956  227.82636784811538 306.9915584798657L 227.82636784811538 306.9915584798657Q 220.99305967802 304.7231009747519  216.32414469648512 301.0131504501223Q 211.6552297149503 297.3031999254927  209.8156393202093 292.8466421529987Q 207.97604892546838 288.39008438050473  209.45684757463988 283.9294526583591L 209.45684757463988 283.9294526583591Q 211.0636716407622 279.08919270454146  215.18786071294076 276.9812163059728Q 219.31204978511934 274.873239907404  223.96249562310092 276.41705126505093L 223.96249562310092 276.41705126505093Q 225.00647326019882 276.7636211616655  225.3707363099569 277.25332763556696Q 225.7349993597149 277.7430341094684  225.57746758852645 278.2175693990584L 225.57746758852645 278.2175693990584Q 225.48294852581336 278.50229057281234  224.2034492223426 279.499978666566Q 222.9239499188718 280.4976667603197  221.6924861371674 281.98544932317964Q 220.46102235546303 283.4732318860397  219.67336349952075 285.8459083339895L 219.67336349952075 285.8459083339895Q 218.00352672492306 290.87598240364304  220.76009935179889 295.26816948444446Q 223.5166719786747 299.6603565652459  229.59072368542616 301.67676323645816L 229.59072368542616 301.67676323645816ZM 278.2776433115973 283.5835391728406Q 279.306188772101 273.0335584033947  283.80865462004493 264.9824528092482Q 288.31112046798887 256.93134721510154  296.20627676627805 252.72759805208227Q 304.1014330645672 248.523848889063  314.850470074946 249.5718008676894L 314.850470074946 249.5718008676894Q 325.5995070853247 250.6197528463158  332.5340407365397 256.2692876094771Q 339.46857438775464 261.9188223726383  342.3809535145627 270.6928207668559Q 345.2933326413708 279.4668191610735  344.2647871808671 290.01679993051937L 344.2647871808671 290.01679993051937Q 343.2362417203634 300.5667806999652  338.6888634417169 308.56327060434785Q 334.1414851630704 316.55976050873056  326.25118049431194 320.7137456115166Q 318.3608758255534 324.86773071430264  307.6118388151747 323.8197787356762L 307.6118388151747 323.8197787356762Q 296.8628018047959 322.7718267570498  289.9234165240503 317.1720560541218Q 282.9840312433046 311.5722853511938  280.1165645471991 302.85290264674006Q 277.2490978510936 294.1335199422864  278.2776433115973 283.5835391728406L 278.2776433115973 283.5835391728406ZM 333.3871122728378 289.257729054231Q 334.08574692525536 282.0917043806451  332.7586099967024 274.57747071560175Q 331.43147306814933 267.0632370505584  327.0446097478907 261.5616072729953Q 322.65774642763216 256.05997749543207  314.795024910781 255.29342002958498L 314.795024910781 255.29342002958498Q 307.7285283576616 254.60448863622872  302.18073838446946 258.43424403486034Q 296.63294841127725 262.263999433492  293.2276479881422 269.3670923533542Q 289.82234756500725 276.47018527321643  288.94905424948524 285.42771611519873L 288.94905424948524 285.42771611519873Q 288.1048707111473 294.08666259578166  289.92354884757555 301.196684384502Q 291.74222698400376 308.3067061732223  296.28073858463983 312.76814231541823Q 300.8192501852758 317.22957845761414  307.78621861792874 317.90880659190907L 307.78621861792874 317.90880659190907Q 314.75318705058163 318.58803472620394  320.27671887612047 315.0070996287385Q 325.8002507016593 311.426164531273  329.1715897180796 304.67142003304343Q 332.5429287344998 297.9166755348139  333.3871122728378 289.257729054231L 333.3871122728378 289.257729054231ZM 387.60626930376804 247.67322602697266Q 394.0472508270674 246.7992940979782  399.39922450608765 247.94007354163696Q 404.7511981851079 249.08085298529585  408.0257319241132 252.01725023228335Q 411.3002656631186 254.95364747927084  411.8784052469149 259.21460448699196L 411.8784052469149 259.21460448699196Q 412.56410568351055 264.26829768219613  409.98548748652877 267.94841020686084Q 407.40686928954705 271.6285227315256  402.8486362115198 272.2469976351217L 402.8486362115198 272.2469976351217Q 400.7677037193769 272.5293448737199  400.6063624401779 271.34024059249543L 400.6063624401779 271.34024059249543Q 400.5660271203782 271.04296452218927  401.22007782718003 269.54139278799477Q 401.8741285339819 268.0398210538002  402.2829373208134 266.21831745078174Q 402.6917461076448 264.3968138477632  402.3556184426469 261.9195132618788L 402.3556184426469 261.9195132618788Q 401.72369843245093 257.2621881604162  397.86556952081526 254.8590982117874Q 394.00744060917964 252.45600826315845  388.35919527336324 253.2223793393536L 388.35919527336324 253.2223793393536Q 381.02638553914545 254.2173172277473  376.9875353412789 259.40747031597056Q 372.9486851434124 264.5976234041939  371.83580032646336 272.01459633013906Q 370.7229155095144 279.4315692560843  371.82541425070735 287.557115177785L 371.82541425070735 287.557115177785Q 372.95480320510023 295.88084514635653  376.5084541815317 302.3618994384997Q 380.06210515796334 308.8429537306428  385.46214112359326 312.19737045637964Q 390.8621770892231 315.5517871821166  397.3031586125225 314.6778552531221L 397.3031586125225 314.6778552531221Q 403.6450481123866 313.8173684307276  407.98641320875123 310.8567858698002Q 412.3277783051158 307.89620330887294  414.72239942438074 303.23189310315433L 414.72239942438074 303.23189310315433Q 414.96589506828724 302.79518968961315  415.3622631620287 302.7414092632135L 415.3622631620287 302.7414092632135Q 416.25409137294713 302.62040330381427  417.5213781551531 303.4071588005513Q 418.7886649373591 304.1939142972883  418.90967089675837 305.08574250820664L 418.90967089675837 305.08574250820664Q 418.9500062165581 305.3830185785128  418.71995567925154 305.9188140154894L 418.71995567925154 305.9188140154894Q 411.90557020199844 319.6597801593747  397.3390427569983 321.6362108295622L 397.3390427569983 321.6362108295622Q 387.0334723197193 323.0345019159533  379.24003640897644 319.1470404428138Q 371.44660049823364 315.25957896967435  366.74317614686737 307.37032682698197Q 362.03975179550105 299.48107468428975  360.62801560250995 289.0764122235754L 360.62801560250995 289.0764122235754Q 359.20283430291903 278.57265773942567  361.6340356388998 269.71535792153946Q 364.0652369748804 260.8580581036534  370.5838758972493 254.9782327151085Q 377.10251481961825 249.09840732656363  387.60626930376804 247.67322602697266L 387.60626930376804 247.67322602697266ZM 440.4984838446171 311.250864174452L 438.32964192559854 308.3705647576712L 440.3418975564448 307.1053267262607Q 443.6337371001797 304.9112910797173  444.3308487164638 302.80320298989716Q 445.02796033274785 300.6951149000769  443.6416961148386 296.3089694945819L 443.6416961148386 296.3089694945819L 430.02014336494767 253.2103233362403Q 428.6338791470384 248.82417793074532  426.8518650993471 247.49963048583044Q 425.0698510516558 246.1750830409154  421.1150155776165 246.27139697178725L 421.1150155776165 246.27139697178725L 418.74112580296776 246.39242315828608L 418.86070757377263 242.78885545390042L 439.7425737434117 236.18903232950635L 441.4643154338026 237.3228778002694L 440.7672038175185 239.43096589008957Q 439.3779230360757 243.33095292985183  439.5394517753734 247.16030123816506Q 439.7009805146711 250.98964954647823  441.50915123368316 256.7107087710368L 441.50915123368316 256.7107087710368L 453.2923970859118 293.99294471774385Q 454.5882527678704 298.0930371620109  456.2447796498356 299.35236979850004Q 457.90130653180074 300.6117024349893  461.76079101876405 300.54552468276756L 461.76079101876405 300.54552468276756L 463.9439788192608 300.4847708535693L 463.85947567823155 303.8675004051527L 440.4984838446171 311.250864174452ZM 522.8180915984269 276.64503340031604L 520.1635316015979 274.20509257660024L 521.9134068194633 272.5963860396891Q 523.7515995049966 270.9407750796952  524.209888684682 269.565103960647Q 524.6681778643674 268.1894328415988  523.8238982488776 266.5997184235764L 523.8238982488776 266.5997184235764Q 523.0734274795533 265.1866389408898  520.5540893734749 262.78811116175916L 520.5540893734749 262.78811116175916L 509.7482316938276 252.67507799622427L 489.3468966625399 263.5099997283436L 490.65130032355205 271.08288102208763Q 491.85640375990107 278.2555880220772  493.5449629908807 281.435016858122L 493.5449629908807 281.435016858122Q 495.1397133756948 284.437810758831  497.6425773462803 286.165720462706L 497.6425773462803 286.165720462706L 499.28171417078124 287.3332950729835L 498.3541530544153 289.6375585942427L 482.1037390035194 298.2679724414719L 479.4491790066903 295.8280316177562L 481.19905422455577 294.219325080845Q 484.21580427736177 291.37165601318725  484.96123907989437 288.937661979675Q 485.706673882427 286.50366794616275  484.9621499033063 281.69059366411454L 484.9621499033063 281.69059366411454L 477.62719309375757 234.4071038542236Q 477.0508392763732 230.9766787672721  476.3003685070489 229.56359928458554L 476.3003685070489 229.56359928458554Q 475.45608889155915 227.9738848665631  474.05971125021836 227.58320663225305Q 472.6633336088777 227.19252839794297  470.2622878463511 227.7883297459219L 470.2622878463511 227.7883297459219L 467.9495595514925 228.3372266708181L 467.41461877869335 224.77157969311583L 484.4598900386004 215.71902603814166L 529.416266427856 257.5153682458945Q 532.98694937235 260.8275009892942  535.7906874120267 262.0559361747515Q 538.5944254517035 263.2843713602088  543.0871781340658 264.0687012239307L 543.0871781340658 264.0687012239307L 542.6895218237072 266.0915382066933L 522.8180915984269 276.64503340031604ZM 483.37377528237533 227.9583215544821L 488.2934892524345 257.04932384819494L 504.9854906416699 248.1843878855518L 483.37377528237533 227.9583215544821ZM 555.9697719733225 179.4776120516293Q 552.777190593268 177.3568989329522  550.6924388448708 176.72538476244213Q 548.6076870964736 176.0938705919321  546.6099118528409 176.84977672097767Q 544.6121366092084 177.60568285002324  541.9068138243904 179.98080992661195L 541.9068138243904 179.98080992661195L 538.525160343368 182.94971877234786Q 536.9470553855575 184.33520956702466  537.4152427330359 185.85369585529378Q 537.8834300805142 187.37218214356287  540.9842904305051 190.9041313348529L 540.9842904305051 190.9041313348529L 570.8053303921193 224.8709618553447Q 573.8402149899827 228.32776319150085  576.0047006450169 228.8227398062528Q 578.169186300051 229.3177164210047  581.7505380685388 227.63726424663315L 581.7505380685388 227.63726424663315L 583.8747932493817 226.57070907850454L 585.2161945601094 229.91744517858436L 568.7588142858004 244.36613489449917L 566.7262801350212 244.02145399001486L 566.5156387134667 241.81110781994892Q 566.2171352716061 237.6818347973458  564.5275109942282 234.24160663611946Q 562.8378867168503 230.80137847489303  558.8793415892025 226.29250716686315L 558.8793415892025 226.29250716686315L 533.5446527722559 197.43573079547193Q 530.443792422265 193.9037816041819  528.9986829580469 193.24298009356988Q 527.5535734938287 192.5821785829578  525.9754685360182 193.96766937763456L 525.9754685360182 193.96766937763456L 522.5938150549957 196.9365782233705Q 519.8884922701778 199.31170529995921  518.8803533084572 201.19482925601227Q 517.8722143467367 203.0779532120653  518.2285654270556 205.22690968150704Q 518.5849165073747 207.37586615094878  520.2745407847526 210.8160943121752L 520.2745407847526 210.8160943121752L 521.3410959528813 212.9403494930181L 517.9943598528014 214.2817508037459L 506.2506759741127 200.90543258992395L 506.59535687859693 198.8728984391447L 508.80570304866296 198.66225701759012Q 512.295333787087 198.3930409158316  518.7580493285965 192.71912623286957L 518.7580493285965 192.71912623286957L 538.2213438082588 175.63140643185613Q 544.6840593497683 169.95749174889414  545.4027084988388 166.53206573151465L 545.4027084988388 166.53206573151465L 545.8976851135907 164.36758007648052L 547.9577355733891 164.28889015918085L 559.7014194520777 177.6652083730028L 557.9381014030572 180.81015820694262L 555.9697719733225 179.4776120516293ZM 595.7376423241086 167.8824556834789L 612.1872480612799 179.77785273829068Q 614.7802893597501 181.6529892198373  616.369800084227 182.18539475772462Q 617.9593108087039 182.717800295612  619.2365792553196 181.97544908810985Q 620.5138477019352 181.23309788060757  622.0959941082402 179.04521928502322L 622.0959941082402 179.04521928502322L 628.4245797334602 170.29370490268582Q 630.5341082752002 167.37653344190667  631.0983245218379 165.31639751750023Q 631.6625407684757 163.2562615930938  630.8373159408534 161.24032409806188Q 630.012091113231 159.22438660302993  627.599867262358 156.24593464046959L 627.599867262358 156.24593464046959L 626.0877069193724 154.41198505089474L 629.0524299179422 152.36005485184995L 642.908994356643 162.38031542511504L 642.6283920020255 164.64554440219067L 641.2682499352898 164.64922656127658Q 639.4892162016772 164.7202122969491  637.6726777351789 167.23222105484226L 637.6726777351789 167.23222105484226L 613.0029133998305 201.3469206378427L 609.7652939358284 200.36314210264516L 610.5096570083804 198.30987066023405Q 611.7864256188194 194.667088493346  611.1120486095871 192.69853175059797Q 610.4376716003547 190.72997500784993  606.9532723555352 188.21026036077154L 606.9532723555352 188.21026036077154L 575.2695489898507 165.29843647687312Q 570.4075965552188 161.78255557397313  566.8234124033792 160.4247544229568Q 563.2392282515394 159.0669532719404  559.1002040362836 159.15903228977538L 559.1002040362836 159.15903228977538L 556.8798441102657 159.1576910464089L 556.3450976566589 157.16669977813206L 574.276090261449 132.3707423615094Q 579.3155195556056 125.40194387187037  579.2545806248379 121.90247441969379L 579.2545806248379 121.90247441969379L 579.2559218682043 119.68211449367581L 581.2469131364812 119.14736804006904L 595.6707053592224 129.57781471867239L 594.6507633345054 133.03609727887718L 592.4354268109398 132.17453817622862Q 588.8512426591002 130.81673702521235  586.6782634853662 130.66454796345593Q 584.5052843116323 130.5123589016995  582.7255799563366 131.69352460038095Q 580.9458756010408 132.87469029906242  578.8363470593008 135.79186175984157L 578.8363470593008 135.79186175984157L 573.1523395996126 143.65201819582978Q 571.5701931933075 145.83989679141413  571.2653152336183 147.28542417949635Q 570.960437273929 148.73095156757853  571.9639678479224 150.07368251123785Q 572.9674984219158 151.41641345489717  575.5605397203863 153.29154993644386L 575.5605397203863 153.29154993644386L 591.1187875112083 164.54236882572394L 598.5607354223467 154.25123617241974Q 599.9670877835067 152.30645519856702  600.2003093858402 150.19207403988125Q 600.4335309881739 148.07769288119562  599.4624817446139 145.15415677459774L 599.4624817446139 145.15415677459774L 599.0399079186514 143.86131828444846L 601.1032261659673 142.88524563843617L 614.9597906046682 152.9055062117012L 613.9398485799512 156.36378877190594L 611.7245120563856 155.5022296692575Q 608.4420235413259 154.23919002280897  606.1916939861005 155.38854501274Q 603.9413644308753 156.53790000267114  600.7184736032169 160.99468973441705L 600.7184736032169 160.99468973441705L 595.7376423241086 167.8824556834789ZM 661.0671324636332 114.3907734551182Q 663.4366335981671 109.09686522268319  662.148703310286 104.63102425220981Q 660.8607730224049 100.16518328173643  656.0232361893179 97.99994948638661L 656.0232361893179 97.99994948638661Q 652.0984421549265 96.24325036940465  648.4614374664301 97.02568049143147Q 644.8244327779336 97.80811061345827  641.7624837557161 99.9983088203202Q 638.7005347334986 102.18850702718223  634.1308835378991 106.27853000395831L 634.1308835378991 106.27853000395831Q 628.8693074801272 110.93533334834385  625.105866251541 113.4689098952393Q 621.342425022955 116.00248644213474  616.5884101965789 116.83275328514148Q 611.8343953702029 117.66302012814828  606.3579385780287 115.21181205794088L 606.3579385780287 115.21181205794088Q 601.7029503046807 113.12828519826459  598.6421548124862 109.07408602272298Q 595.5813593202918 105.01988684718143  595.1187736878162 99.4444035019792Q 594.6561880553404 93.86892015677697  597.5567842717525 87.38844628603758L 597.5567842717525 87.38844628603758Q 600.2122596811438 81.45561809451561  604.0047874523254 77.51078183621345Q 607.7973152235072 73.5659455779113  612.0193274324863 72.33321977416105Q 616.2413396414655 71.10049397041078  620.1661336758569 72.85719308739272L 620.1661336758569 72.85719308739272Q 624.8211219492049 74.94071994706903  626.5871424158786 79.07274992170494Q 628.3531628825523 83.20477989634088  626.47390336206 87.40339677034103L 626.47390336206 87.40339677034103Q 625.6159805374874 89.32015664760198  624.5206891790525 88.8299150335605L 624.5206891790525 88.8299150335605Q 624.2468663394438 88.70735463005013  623.3162808978825 87.35957470144368Q 622.3856954563213 86.01179477283733  621.053943099543 84.70357626654129Q 619.7221907427646 83.39535776024528  617.4403337460253 82.37402106432555L 617.4403337460253 82.37402106432555Q 613.1504425921556 80.45390807599645  609.0736171016505 82.46375730416443Q 604.9967916111453 84.47360653233241  602.6681439444484 89.67624048489782L 602.6681439444484 89.67624048489782Q 600.2577893420778 95.06142299720238  602.0081667469311 99.35079112556107Q 603.7585441517843 103.64015925391976  608.1397095855236 105.60112571008565L 608.1397095855236 105.60112571008565Q 611.5168579406977 107.11270402004689  614.8391863217486 106.29898777437924Q 618.1615147027996 105.48527152871162  621.0709092433922 103.3911312738172Q 623.980303783985 101.2969910189228  628.5091015117478 97.29824232201628L 628.5091015117478 97.29824232201628Q 633.8523845051933 92.45889041789164  637.875297557094 89.71277123314263Q 641.8982106089949 86.96665204839368  646.9621180707186 86.05597031523979Q 652.0260255324421 85.14528858208584  657.7763051642248 87.71905705580357L 657.7763051642248 87.71905705580357Q 665.8997160726165 91.35501569327786  668.3064715694147 98.9510691408671Q 670.7132270662128 106.54712258845629  666.178492136329 116.67856765397843L 666.178492136329 116.67856765397843Q 663.2370424520802 123.25031580458736  659.0781255158938 127.52417938662907Q 654.9192085797074 131.7980429686707  650.3008131276093 133.18203120851933Q 645.6824176755111 134.5660194483679  641.3925265216415 132.64590646003876L 641.3925265216415 132.64590646003876Q 636.7375382482935 130.56237960036253  635.0532247172933 126.24780106598743Q 633.3689111862932 121.93322253161239  635.370731110296 117.46078281800351L 635.370731110296 117.46078281800351Q 635.8201192565007 116.45676573943825  636.3438465752281 116.14338147751923Q 636.8675738939554 115.82999721560006  637.3239452933033 116.03426455478402L 637.3239452933033 116.03426455478402Q 637.597768132912 116.15682495829444  638.4622897006202 117.52981529291722Q 639.3268112683281 118.90280562753995  640.683774031123 120.27708800768923Q 642.0407367939176 121.65137038783837  644.3225937906568 122.6727070837581L 644.3225937906568 122.6727070837581Q 649.160130623744 124.83794087910798  653.8063205729114 122.53513412293927Q 658.4525105220787 120.23232736677056  661.0671324636332 114.3907734551182L 661.0671324636332 114.3907734551182Z" data-textpath="&amp; ASSOCIATES" data-text-anchor="middle" data-font-size="100" data-letterspacing="0" data-side="right" data-offset="0.5" data-dx="0" data-dy="0" data-xmlspace="preserve" data-href="" data-font="Gabriela" data-font-src="/Content/clientfonts/gabriela.woff" data-font-scale="contain" transform="translate(0,0)" data-x="0" data-y="0" fill="url('#linearGradientSkliol8sry')"></path>
        </g>
      </svg>
    </g>
  </g>
</svg>